<svg xmlns="http://www.w3.org/2000/svg" width="149.54999999999998" height="35" viewBox="0 0 149.54999999999998 35"><rect class="svg__rect" x="0" y="0" width="107.88" height="35" fill="#419B5A"/><rect class="svg__rect" x="105.88" y="0" width="43.66999999999999" height="35" fill="#8FC965"/><path class="svg__text" d="M15.00 22L13.46 22L16.68 13.47L18.01 13.47L21.24 22L19.69 22L18.99 20.01L15.69 20.01L15.00 22ZM17.34 15.28L16.10 18.82L18.58 18.82L17.34 15.28ZM26.67 22L25.19 22L25.19 13.47L28.46 13.47Q29.89 13.47 30.73 14.21Q31.57 14.96 31.57 16.18L31.57 16.18Q31.57 17.44 30.74 18.13Q29.92 18.83 28.44 18.83L28.44 18.83L26.67 18.83L26.67 22ZM26.67 14.66L26.67 17.64L28.46 17.64Q29.25 17.64 29.66 17.27Q30.08 16.90 30.08 16.19L30.08 16.19Q30.08 15.50 29.66 15.09Q29.23 14.68 28.50 14.66L28.50 14.66L26.67 14.66ZM37.41 22L35.94 22L35.94 13.47L37.41 13.47L37.41 22ZM53.56 22L48.20 22L48.20 13.47L49.68 13.47L49.68 20.82L53.56 20.82L53.56 22ZM63.26 22L57.68 22L57.68 13.47L63.22 13.47L63.22 14.66L59.16 14.66L59.16 17.02L62.67 17.02L62.67 18.19L59.16 18.19L59.16 20.82L63.26 20.82L63.26 22ZM69.75 22L66.69 13.47L68.32 13.47L70.46 20.14L72.63 13.47L74.26 13.47L71.19 22L69.75 22ZM83.79 22L78.21 22L78.21 13.47L83.74 13.47L83.74 14.66L79.69 14.66L79.69 17.02L83.19 17.02L83.19 18.19L79.69 18.19L79.69 20.82L83.79 20.82L83.79 22ZM93.34 22L87.98 22L87.98 13.47L89.46 13.47L89.46 20.82L93.34 20.82L93.34 22Z" fill="#FFFFFF"/><path class="svg__text" d="M119.18 21.34L119.18 21.34L120.04 19.55Q120.54 19.88 121.15 20.07Q121.77 20.25 122.38 20.25L122.38 20.25Q122.99 20.25 123.35 20.02Q123.71 19.79 123.71 19.37L123.71 19.37Q123.71 18.55 122.42 18.55L122.42 18.55L121.43 18.55L121.43 17.05L122.93 15.44L119.62 15.44L119.62 13.60L125.69 13.60L125.69 15.09L123.95 16.96Q124.99 17.18 125.55 17.82Q126.11 18.46 126.11 19.37L126.11 19.37Q126.11 20.11 125.70 20.75Q125.30 21.39 124.48 21.78Q123.66 22.17 122.45 22.17L122.45 22.17Q121.56 22.17 120.69 21.95Q119.82 21.74 119.18 21.34ZM131.64 16.17L129.88 15.19Q130.37 14.37 131.26 13.90Q132.14 13.43 133.36 13.43L133.36 13.43Q134.32 13.43 135.05 13.74Q135.79 14.05 136.20 14.64Q136.62 15.22 136.62 15.99L136.62 15.99Q136.62 16.67 136.32 17.28Q136.03 17.89 135.19 18.65L135.19 18.65L133.61 20.11L136.85 20.11L136.85 22L130.30 22L130.30 20.51L133.45 17.57Q133.91 17.14 134.06 16.83Q134.22 16.53 134.22 16.22L134.22 16.22Q134.22 15.81 133.94 15.58Q133.67 15.35 133.14 15.35L133.14 15.35Q132.67 15.35 132.28 15.56Q131.89 15.77 131.64 16.17L131.64 16.17Z" fill="#FFFFFF" x="118.88"/></svg>